<svg width="300" height="300" viewBox="0 0 300 300" fill="none" xmlns="http://www.w3.org/2000/svg">
<path d="M142.9 97.9544C133.5 107.854 128.3 117.754 126.6 129.654C125.9 133.854 126.1 134.354 129.5 137.954C135.3 143.954 142 154.554 145.7 163.554C147.5 168.054 149.1 172.454 149.1 173.354C149.1 177.354 150.6 175.654 152.6 169.554C156.3 157.854 162.5 147.054 170.5 138.454L174.5 134.154L173.3 127.454C171.7 117.854 165.5 106.054 157.9 97.9544C154.4 94.2544 151.1 91.2544 150.5 91.2544C149.9 91.2544 146.5 94.2544 142.9 97.9544ZM155.4 99.4544C161.9 105.954 165.9 112.154 168.6 119.854C172.1 129.754 171.9 132.654 167.2 138.254C162.1 144.254 156.4 153.254 153.5 159.954C150.9 165.854 149.3 166.254 147.7 161.654C145.6 156.054 141.2 148.554 135.2 140.454C131.8 135.854 129.1 131.254 129.1 129.854C129.1 125.354 133.6 114.354 138.2 107.754C142 102.254 148.6 95.2544 150 95.2544C150.7 95.2544 153.1 97.1544 155.4 99.4544Z" fill="#4AE362"/>
<path d="M155.4 99.4544C161.9 105.954 165.9 112.154 168.6 119.854C172.1 129.754 171.9 132.654 167.2 138.254C162.1 144.254 156.4 153.254 153.5 159.954C150.9 165.854 149.3 166.254 147.7 161.654C145.6 156.054 141.2 148.554 135.2 140.454C131.8 135.854 129.1 131.254 129.1 129.854C129.1 125.354 133.6 114.354 138.2 107.754C142 102.254 148.6 95.2544 150 95.2544C150.7 95.2544 153.1 97.1544 155.4 99.4544Z" fill="#4AE362"/>
<path d="M83.4999 119.854C84.2999 126.854 86.7999 137.354 88.7999 142.254C90.0999 145.754 90.2999 145.854 99.3999 147.554C113.5 150.254 123.4 155.554 133.5 165.554C139 171.054 142.9 176.054 145.4 180.754C148.4 186.554 149 187.154 148.5 184.254C147 176.254 141.1 160.754 136.5 153.154C127.3 137.854 112.2 125.154 95.0999 118.454C81.8999 113.254 82.6999 113.054 83.4999 119.854ZM92.4999 120.154C92.7999 120.654 94.1999 121.354 95.5999 121.654C101.6 123.154 115 132.254 122.8 140.154C130.7 148.054 139.8 162.254 138.4 164.554C138.1 165.154 137.6 165.154 137.2 164.554C135.6 162.154 124.4 153.954 119.1 151.254C113.4 148.354 105.3 145.854 97.8999 144.754C95.7999 144.454 93.4999 143.554 92.7999 142.754C90.2999 140.354 85.3999 122.154 86.6999 120.154C87.3999 118.954 91.7999 118.954 92.4999 120.154Z" fill="#27AA3C"/>
<path d="M92.4999 120.154C92.7999 120.654 94.1999 121.354 95.5999 121.654C101.6 123.154 115 132.254 122.8 140.154C130.7 148.054 139.8 162.254 138.4 164.554C138.1 165.154 137.6 165.154 137.2 164.554C135.6 162.154 124.4 153.954 119.1 151.254C113.4 148.354 105.3 145.854 97.8999 144.754C95.7999 144.454 93.4999 143.554 92.7999 142.754C90.2999 140.354 85.3999 122.154 86.6999 120.154C87.3999 118.954 91.7999 118.954 92.4999 120.154Z" fill="#27AA3C"/>
<path d="M210 116.654C187.1 124.654 169.6 140.254 159.6 161.554C156.7 167.554 150.6 187.254 151.5 187.254C151.7 187.254 153.3 184.354 155.1 180.854C159.3 172.554 166.6 164.354 175.4 158.154C183.5 152.454 190.4 149.654 202 147.354L210.4 145.654L212.7 139.054C215.1 131.854 217.5 118.654 217 115.954C216.6 114.454 215.9 114.554 210 116.654ZM213.6 124.354C213.2 127.154 211.9 132.454 210.7 136.154L208.5 142.754L198.6 145.354C193.1 146.754 186 149.054 182.9 150.554C177.4 153.154 164.4 162.354 162.9 164.654C161.2 167.154 162.2 162.354 164.2 158.254C168.6 149.254 177.7 138.954 188.6 130.754C194.5 126.254 208.6 119.354 211.9 119.254C214.1 119.254 214.2 119.454 213.6 124.354Z" fill="#27AA3C"/>
<path d="M213.6 124.354C213.2 127.154 211.9 132.454 210.7 136.154L208.5 142.754L198.6 145.354C193.1 146.754 186 149.054 182.9 150.554C177.4 153.154 164.4 162.354 162.9 164.654C161.2 167.154 162.2 162.354 164.2 158.254C168.6 149.254 177.7 138.954 188.6 130.754C194.5 126.254 208.6 119.354 211.9 119.254C214.1 119.254 214.2 119.454 213.6 124.354Z" fill="#27AA3C"/>
<path d="M56.2 152.154C57.9 155.054 61.5 159.654 64 162.454L68.7 167.554L79.2 167.354C99.5 166.954 120.3 170.254 130.3 175.354C132.6 176.554 136.9 179.754 139.9 182.654L145.4 187.754L142.5 182.254C138 173.654 125.1 161.354 116.1 156.954C103.8 150.954 97.9 149.854 80.9 150.554C66.8 151.154 61.4 150.554 54.8 147.754C53.4 147.154 53.7 148.154 56.2 152.154ZM101.1 154.454C108.5 155.954 119.6 161.354 124.9 165.954C127.2 168.054 129.1 170.054 129.1 170.354C129.1 171.054 123 169.954 121.5 168.954C118.8 167.354 99.6 165.254 85.8 164.954L69.9 164.754L66 160.454C59.8 153.554 60.1 153.354 75.4 153.054C90.4 152.754 93.4 152.854 101.1 154.454Z" fill="#4AE362"/>
<path d="M101.1 154.454C108.5 155.954 119.6 161.354 124.9 165.954C127.2 168.054 129.1 170.054 129.1 170.354C129.1 171.054 123 169.954 121.5 168.954C118.8 167.354 99.6 165.254 85.8 164.954L69.9 164.754L66 160.454C59.8 153.554 60.1 153.354 75.4 153.054C90.4 152.754 93.4 152.854 101.1 154.454Z" fill="#4AE362"/>
<path d="M242.6 149.054C240 150.454 237.1 150.654 221.8 150.454C201.5 150.154 196.1 151.054 184.6 156.754C173.5 162.154 161.8 173.954 155.8 185.854C154.4 188.454 155.1 188.054 159.9 183.354C170.9 172.354 184.2 168.454 213.1 167.654C222.7 167.454 231.1 167.254 231.8 167.254C233 167.254 241.4 157.054 245 150.954C247.5 146.854 247.1 146.554 242.6 149.054ZM226.7 153.254H239.2L237.7 156.154C236.9 157.654 234.7 160.254 232.8 161.954L229.4 164.854L213.7 165.154C205 165.254 197 165.554 195.8 165.854C194.6 166.054 191.6 166.554 189.1 166.854C186.6 167.154 181.7 168.254 178.2 169.354C174.7 170.354 171.7 171.254 171.4 171.254C170.1 171.254 173.4 167.654 178 164.254C186.5 157.854 196.6 153.854 205.6 153.354C208.4 153.254 210.8 152.854 211 152.654C211.3 152.354 212.1 152.454 212.9 152.754C213.6 153.054 219.9 153.254 226.7 153.254Z" fill="#4AE362"/>
<path d="M226.7 153.254H239.2L237.7 156.154C236.9 157.654 234.7 160.254 232.8 161.954L229.4 164.854L213.7 165.154C205 165.254 197 165.554 195.8 165.854C194.6 166.054 191.6 166.554 189.1 166.854C186.6 167.154 181.7 168.254 178.2 169.354C174.7 170.354 171.7 171.254 171.4 171.254C170.1 171.254 173.4 167.654 178 164.254C186.5 157.854 196.6 153.854 205.6 153.354C208.4 153.254 210.8 152.854 211 152.654C211.3 152.354 212.1 152.454 212.9 152.754C213.6 153.054 219.9 153.254 226.7 153.254Z" fill="#4AE362"/>
<path d="M32.3 167.154C32.5 167.554 34.4 172.254 36.6 177.554C40.1 186.054 40.9 187.254 42.6 186.754C55.3 183.154 65.6 181.954 84.1 181.854C105.5 181.754 117.3 183.454 134.6 189.054C139.3 190.654 143.1 191.554 143.1 191.154C143.1 189.154 133.3 180.954 127.8 178.354C116 172.554 110.1 171.854 74.5 171.754L42.5 171.654L37.2 169.154C34.4 167.654 32.2 166.854 32.3 167.154ZM103.1 175.354C113.2 176.454 125.6 179.654 126.7 181.354C127.8 183.154 126.2 183.554 122.4 182.454C118.3 181.154 116.2 180.854 103.1 179.154C88.5 177.254 54.8 179.354 46.1 182.754C43.8 183.554 41.2 181.254 40.5 177.754L40 174.754L66.8 174.454C81.5 174.354 97.9 174.754 103.1 175.354Z" fill="#27AA3C"/>
<path d="M103.1 175.354C113.2 176.454 125.6 179.654 126.7 181.354C127.8 183.154 126.2 183.554 122.4 182.454C118.3 181.154 116.2 180.854 103.1 179.154C88.5 177.254 54.8 179.354 46.1 182.754C43.8 183.554 41.2 181.254 40.5 177.754L40 174.754L66.8 174.454C81.5 174.354 97.9 174.754 103.1 175.354Z" fill="#27AA3C"/>
<path d="M262.6 169.154L257.7 171.654L225.1 171.754C195.1 171.854 192 172.054 184.3 174.054C179.8 175.254 174.2 177.154 171.9 178.354C167.8 180.454 157.1 189.854 157.1 191.254C157.1 191.654 161 190.754 165.8 189.154C182.4 183.554 194.5 181.754 215.6 181.754C231.3 181.754 236.5 182.154 245.8 184.054C252 185.254 257.7 186.554 258.4 186.854C259.3 187.154 260.5 185.354 262.1 181.554C263.4 178.354 265.4 173.654 266.7 170.954C267.9 168.354 268.6 166.354 268.3 166.354C267.9 166.454 265.4 167.654 262.6 169.154ZM260.8 175.954C261 176.354 260.2 178.254 259 180.154C257.4 182.854 256.6 183.354 254.8 182.754C252.6 182.054 248 181.254 236.1 179.354C226.6 177.854 196.3 178.754 186.6 180.754C174.7 183.254 172.1 183.554 172.1 182.654C172.1 180.654 181.5 177.554 193.1 175.754C202.5 174.354 260.3 174.454 260.8 175.954Z" fill="#27AA3C"/>
<path d="M260.8 175.954C261 176.354 260.2 178.254 259 180.154C257.4 182.854 256.6 183.354 254.8 182.754C252.6 182.054 248 181.254 236.1 179.354C226.6 177.854 196.3 178.754 186.6 180.754C174.7 183.254 172.1 183.554 172.1 182.654C172.1 180.654 181.5 177.554 193.1 175.754C202.5 174.354 260.3 174.454 260.8 175.954Z" fill="#27AA3C"/>
<path d="M57.6 187.154C42.1 189.954 31.9 193.154 16.8 199.654L13 201.354L18.1 205.354L23.2 209.354L30.9 206.354C46.5 200.354 68.1 196.354 84.6 196.254C102.5 196.254 123.7 200.354 140.4 206.954C145.6 209.054 150 210.254 151.4 209.954C152.6 209.654 159.5 207.354 166.6 204.854C184.9 198.454 195 196.854 215.6 196.854C237.2 196.854 252.5 199.654 270.9 206.954L277.1 209.354L282.2 205.354L287.3 201.354L281.6 198.754C271.6 194.354 262.8 191.554 250.6 188.654C240.5 186.354 235.6 185.854 220.1 185.454C199.3 184.954 185.6 186.654 168 192.054C156.8 195.354 144 195.754 135.6 192.954C120.2 187.754 109.2 186.054 88.1 185.654C71.3 185.354 65.8 185.654 57.6 187.154ZM111.6 190.054C113.3 190.554 118.4 191.854 123.1 192.854C127.8 193.754 132.9 195.254 134.5 196.054C138.8 198.154 161.5 198.254 165.7 196.154C167.4 195.254 172.4 193.754 176.7 192.854C181 191.854 186.4 190.654 188.6 190.054C190.8 189.354 201.8 188.754 213.1 188.654C231.8 188.354 234.6 188.554 245.1 190.754C264.1 194.854 279.1 200.154 279.1 202.854C279.1 204.854 274.6 204.654 268.1 202.354C260.2 199.554 248 196.554 237.6 194.854C228.8 193.454 200.9 193.254 195.1 194.554C193.7 194.854 190.7 195.354 188.5 195.654C180.7 196.654 158.9 203.054 155.6 205.254C152.1 207.654 147.1 206.754 134.6 201.254C125.2 197.154 101.5 193.454 84.1 193.454C66.2 193.454 50.6 196.154 32.4 202.454C24.4 205.154 21.1 205.254 21.1 202.854C21.1 201.254 23.8 199.854 34.1 196.354C42 193.654 57.9 189.954 66.1 188.854C72.2 188.054 108.5 189.054 111.6 190.054Z" fill="#4AE362"/>
<path d="M111.6 190.054C113.3 190.554 118.4 191.854 123.1 192.854C127.8 193.754 132.9 195.254 134.5 196.054C138.8 198.154 161.5 198.254 165.7 196.154C167.4 195.254 172.4 193.754 176.7 192.854C181 191.854 186.4 190.654 188.6 190.054C190.8 189.354 201.8 188.754 213.1 188.654C231.8 188.354 234.6 188.554 245.1 190.754C264.1 194.854 279.1 200.154 279.1 202.854C279.1 204.854 274.6 204.654 268.1 202.354C260.2 199.554 248 196.554 237.6 194.854C228.8 193.454 200.9 193.254 195.1 194.554C193.7 194.854 190.7 195.354 188.5 195.654C180.7 196.654 158.9 203.054 155.6 205.254C152.1 207.654 147.1 206.754 134.6 201.254C125.2 197.154 101.5 193.454 84.1 193.454C66.2 193.454 50.6 196.154 32.4 202.454C24.4 205.154 21.1 205.254 21.1 202.854C21.1 201.254 23.8 199.854 34.1 196.354C42 193.654 57.9 189.954 66.1 188.854C72.2 188.054 108.5 189.054 111.6 190.054Z" fill="#4AE362"/>
</svg>
